<?xml version="1.0" encoding="utf-8"?>
<!-- Generator: Adobe Illustrator 27.1.0, SVG Export Plug-In . SVG Version: 6.00 Build 0)  -->
<svg version="1.1" id="Capa_1" xmlns="http://www.w3.org/2000/svg" xmlns:xlink="http://www.w3.org/1999/xlink" x="0px" y="0px"
	 viewBox="0 0 50 50" style="enable-background:new 0 0 50 50;" xml:space="preserve">
<style type="text/css">
	.st0{fill:#FFFFFF;}
</style>
<g>
	<path class="st0" d="M17.9,4.7C8.2,8,1.4,18.2,3.9,29.7c0.1,0.3,0.2,0.6,0.3,0.9c0.2-0.1,0.3-0.1,0.3-0.2c-0.3-1.5-0.1-2.9,0.2-4.4
		c1.4-7.8,8.4-14.4,17.4-14.1c5.5,0.1,9.9,2.5,13.3,6.8c0.2,0.2,0.3,0.4,0.5,0.6c0.9-1.4,1.8-2.8,2.6-4.2c-0.2-0.2-0.3-0.4-0.4-0.6
		C33.5,9.4,27.8,7.1,21,8c-5.5,0.7-10,3.4-13.3,7.9c-1.9,2.6-3,5.4-3.5,8.6c0,0.2,0,0.5-0.3,0.5c0.1-0.7,0.2-1.4,0.3-2
		C6.5,12.5,16.5,5.6,27.2,7.5C38.5,9.6,44.4,19.9,43.3,29c-0.9,7.1-4.5,12.4-10.8,15.7c-0.4,0.2-0.8,0.3-1.2,0.5
		c0.2-0.1,0.4-0.3,0.6-0.4c4.5-2.1,7.4-5.6,9-10.2c0.3-0.8,0.5-1.6,0.6-2.4c0.7-4.3-0.4-8.3-2.8-11.9c-0.2-0.3-0.4-0.5-0.7-0.9
		c-0.2,0.3-0.4,0.6-0.5,0.8c-0.4,0.5-0.4,0.9-0.1,1.6c1.9,4.2,2.3,8.5,0.7,12.9c-2.1,6-6.3,9.8-12.5,11.3c-0.2,0-0.4,0-0.6,0.1
		c12-3,15.9-15.9,11.3-23.9c-0.1,0.1-0.1,0.2-0.1,0.2c-0.9,1.5-1.8,2.9-2.8,4.4c-0.2,0.3-0.2,0.6-0.1,1c0.5,1.8,0.7,3.6,0.5,5.5
		c-0.5,5.5-4.6,10.6-9.9,12.2c-1.1,0.3-2.3,0.5-3.5,0.8c1,0.1,1.9,0.3,2.9,0.4c1.1,0,2.2-0.2,3.3-0.1c1.2,0.1,2.3-0.1,3.5-0.4
		c11.1-2.7,18.1-13.5,16.2-24.8C44,8.3,30.6,0.3,17.9,4.7z"/>
	<path class="st0" d="M23,39c0,0.1,0.1,0.2,0.2,0.4c1.3-2,2.5-4,3.7-5.9c0.4-0.5,0.4-1,0.2-1.6C25.5,27,20.6,24,15.3,25
		c-5.4,1-9.1,6-8.5,11.4c0,0.1,0.1,0.3,0.2,0.6c0-0.3,0.1-0.4,0.1-0.5c0-0.1,0-0.2,0.1-0.3c0.4-1.8,1.5-3,3.2-3.6
		c0.9-0.3,1.9-0.5,2.9-0.4C17.7,32.6,21.1,34.8,23,39z"/>
	<path class="st0" d="M14,18.6c2.6-1.1,5.3-1.4,8.1-0.9c4.5,0.9,7.8,3.4,10.2,7.4c1.1-1.7,2.1-3.3,3-4.8c-4.1-6.5-13.2-9.7-21.3-5.8
		c-8.2,4-10.7,13.1-8.7,19.2C4.6,25.7,9.5,20.4,14,18.6z"/>
	<path class="st0" d="M15.1,23.4c4.7-1.1,10.9,0.9,13.5,7.5c0.9-1.5,1.8-2.8,2.6-4.2c0.2-0.4,0.1-0.7-0.1-1
		c-3.9-7.1-13.2-9.2-19.7-4.5c-4.3,3.2-6.1,7.5-5.5,12.8c0,0.4,0.2,0.8,0.2,1.2C6,29,10.3,24.5,15.1,23.4z"/>
	<path class="st0" d="M20.8,45.6c8.7-0.9,13.6-9.6,11.4-16.7C32.1,29,32,29.1,32,29.1c-0.9,1.4-1.8,2.8-2.6,4.2
		c-0.2,0.3-0.2,0.6-0.2,1c-0.1,0.8,0,1.6-0.2,2.3c-0.9,4.3-3.4,7.2-7.5,8.8C21.3,45.5,21.1,45.5,20.8,45.6z"/>
	<path class="st0" d="M27.4,36.4c-1.6,2.5-3.2,5-4.7,7.5C25.3,42.6,27.9,38.4,27.4,36.4z"/>
	<path class="st0" d="M4.4,31.1c0,0,0.1,0,0.1,0c0-0.3,0-0.5,0-0.8l0,0c0,0,0,0,0,0c0,0,0,0,0,0C4.4,30.6,4.4,30.9,4.4,31.1z"/>
</g>
</svg>
