<?xml version="1.0" encoding="utf-8"?>
<!-- Generator: Adobe Illustrator 27.1.0, SVG Export Plug-In . SVG Version: 6.00 Build 0)  -->
<svg version="1.1" id="Capa_1" xmlns="http://www.w3.org/2000/svg" xmlns:xlink="http://www.w3.org/1999/xlink" x="0px" y="0px"
	 viewBox="0 0 50 50" style="enable-background:new 0 0 50 50;" xml:space="preserve">
<style type="text/css">
	.st0{fill:#FFFFFF;stroke:#FFFFFF;stroke-width:2;stroke-miterlimit:10;}
	.st1{fill:#FFFFFF;stroke:#FFFFFF;stroke-width:2.0486;stroke-miterlimit:10;}
</style>
<g>
	<g>
		<path class="st0" d="M7.4,27.3c0.6-1.1,1.3-2,2.4-2.6c0.9-0.6,2.2-0.9,3.5-0.9c0.9,0,1.8,0.2,2.8,0.6c0.9,0.4,1.7,1.1,2.4,1.8
			c0.7,0.7,1.1,1.7,1.5,2.6h2.6c-0.4-1.5-0.9-2.8-1.7-3.9c-0.9-1.1-1.8-2-3.1-2.6c-1.3-0.6-2.6-0.9-4.2-0.9c-1.8,0-3.5,0.4-4.8,1.3
			c-1.5,0.7-2.4,2-3.3,3.5c-0.7,1.5-1.1,3.1-1.1,5.2v7.2c0,2,0.4,3.7,1.1,5.2c0.7,1.5,1.8,2.6,3.3,3.5c1.5,0.7,2.9,1.3,4.8,1.3
			c1.5,0,2.9-0.4,4.2-0.9c1.3-0.6,2.4-1.5,3.1-2.6c0.9-1.1,1.5-2.4,1.7-3.9h-2.9c-0.4,1.1-0.7,2-1.5,2.8c-0.7,0.7-1.5,1.3-2.4,1.7
			c-0.9,0.4-1.8,0.6-2.8,0.6c-1.3,0-2.4-0.4-3.5-0.9c-0.9-0.6-1.8-1.5-2.4-2.6c-0.6-1.1-0.7-2.4-0.7-3.9v-7.2
			C6.5,29.7,6.9,28.4,7.4,27.3z"/>
		<path class="st0" d="M30.6,27.4c0.6-1.1,1.3-2,2.4-2.6c0.9-0.6,2.2-0.9,3.5-0.9c0.9,0,1.8,0.2,2.8,0.6c0.9,0.4,1.7,1.1,2.4,1.8
			c0.7,0.7,1.1,1.7,1.5,2.6h2.6c-0.4-1.5-0.9-2.8-1.7-3.9c-0.9-1.1-1.8-2-3.1-2.6c-1.3-0.6-2.6-0.9-4.2-0.9c-1.8,0-3.5,0.4-4.8,1.3
			c-1.5,0.7-2.4,2-3.3,3.5c-0.7,1.5-1.1,3.1-1.1,5.2v7.2c0,2,0.4,3.7,1.1,5.2c0.7,1.5,1.8,2.6,3.3,3.5c1.5,0.7,2.9,1.3,4.8,1.3
			c1.5,0,2.9-0.4,4.2-0.9c1.3-0.6,2.4-1.5,3.1-2.6c0.9-1.1,1.5-2.4,1.7-3.9h-2.9c-0.4,1.1-0.7,2-1.5,2.8s-1.5,1.3-2.4,1.7
			s-1.8,0.6-2.8,0.6c-1.3,0-2.4-0.4-3.5-0.9c-0.9-0.6-1.8-1.5-2.4-2.6c-0.6-1.1-0.7-2.4-0.7-3.9v-7.2C29.7,29.8,30.1,28.5,30.6,27.4
			z"/>
	</g>
	<polygon class="st1" points="24.7,1.3 16.9,5.9 17,3.2 9.7,3.3 9.7,10.6 1.4,15.5 2.2,16.6 11.1,11.3 11.3,4.7 15.5,4.7 15.5,8.5 
		24.7,3.2 47.8,16.6 48.6,15.5 	"/>
</g>
</svg>
