<?xml version="1.0" encoding="utf-8"?>
<!-- Generator: Adobe Illustrator 27.1.0, SVG Export Plug-In . SVG Version: 6.00 Build 0)  -->
<svg version="1.1" id="Capa_1" xmlns="http://www.w3.org/2000/svg" xmlns:xlink="http://www.w3.org/1999/xlink" x="0px" y="0px"
	 viewBox="0 0 141.7 50" style="enable-background:new 0 0 141.7 50;" xml:space="preserve">
<style type="text/css">
	.st0{fill:#FFFFFF;}
</style>
<g>
	<path class="st0" d="M62.9,27.1c-0.1-0.1-0.2-0.2-0.3-0.3c0-0.1,0-0.1,0-0.1c0-0.1,0-0.2,0.1-0.2c0.4-0.7,0.5-1.5,0.5-2.4
		c0-0.5-0.3-1-0.7-1.3c-0.4-0.4-1-0.5-1.5-0.5c-1.9,0-3.8,0-5.7,0c-0.8,0-1.1,0.3-1.1,1.1c0,2.5,0,5,0,7.5c0,0.8,0.3,1.1,1.1,1.1
		c1.2,0,2.4,0,3.7,0c1,0,2,0,3,0c0.9,0,1.7-0.5,1.9-1.4C64.1,29.3,63.9,28.1,62.9,27.1z M62.2,29.9c0,0.3-0.2,0.5-0.5,0.5
		c-1.9,0-3.8,0-5.7,0c0,0-0.1,0-0.2-0.1c0-2,0-4.1,0-6.2c0.2,0,0.3-0.1,0.5-0.1c1.4,0,2.9,0,4.3,0c0.6,0,0.7,0.1,0.7,0.8
		c0,1-0.5,1.5-1.5,1.6c-0.8,0-1.6,0-2.5,0c-0.2,0-0.4,0-0.7,0c0,0.6,0,1.1,0,1.7c0.3,0,0.5,0,0.7,0c1.1,0,2.1,0,3.2,0
		C61.7,28.1,62.3,28.8,62.2,29.9z"/>
	<path class="st0" d="M121.7,28.8c1.4-0.3,2.4-1.3,2.6-2.7c0.1-0.5,0.1-1,0.1-1.4c0-1.2-0.7-2.3-2.3-2.3c-2.1,0-4.2,0-6.3,0
		c-0.9,0-1.1,0.3-1.1,1.1c0,2.7,0,5.4,0,8.1c0,0.2,0,0.3,0.1,0.5c0.6,0,1.1,0,1.7,0c0-1.4,0-2.7,0-4c0-1.3,0-2.6,0-3.9
		c0.1-0.1,0.1-0.1,0.1-0.1c1.9,0,3.8,0,5.7,0c0.4,0,0.5,0.1,0.5,0.5c0,0.4,0,0.8,0,1.2c-0.1,0.7-0.5,1.2-1.2,1.3
		c-0.2,0.1-0.5,0.1-0.8,0.1c-1,0-1.9,0-2.9,0c-0.2,0-0.4,0-0.6,0c0,0.5,0,1,0,1.6c0.2,0,0.4,0.1,0.6,0c0.5-0.1,0.8,0.1,1.2,0.5
		c0.9,0.8,1.9,1.6,2.8,2.4c0.2,0.1,0.3,0.3,0.5,0.3c0.8,0,1.5,0,2.3,0c0,0,0-0.1,0-0.1c-1.1-1-2.3-2-3.5-3
		C121.4,28.9,121.5,28.8,121.7,28.8z"/>
	<path class="st0" d="M72.2,28.9c0.2,0,0.4-0.1,0.5-0.1c1.4-0.3,2.4-1.3,2.5-2.8c0-0.5,0-1.1,0-1.6c0-1.1-0.7-2.1-2.1-2.1
		c-2.2,0-4.4,0-6.6,0c-0.8,0-1,0.3-1,1.1c0,2.7,0,5.4,0,8.2c0,0.2,0,0.3,0.1,0.5c0.6,0,1.1,0,1.7,0c0-1.4,0-2.7,0-4
		c0-1.3-0.1-2.6,0-4c0.2,0,0.4,0,0.6,0c1.6,0,3.3,0,4.9,0c0.1,0,0.2,0,0.3,0c0.3,0,0.5,0.2,0.5,0.5c0,0.4,0,0.9,0,1.3
		c-0.1,0.7-0.5,1.1-1.2,1.3c-0.3,0.1-0.5,0.1-0.8,0.1c-1,0-1.9,0-2.9,0c-0.2,0-0.4,0-0.6,0c0,0.6,0,1.1,0,1.6c0.2,0,0.4,0.1,0.6,0
		c0.5,0,0.8,0.1,1.1,0.4c0.6,0.5,1.2,1.1,1.8,1.6c0.5,0.4,0.9,0.9,1.4,1.1c0.6,0.2,1.2,0.1,1.9,0.1c0.2,0,0.4,0,0.7,0
		c-1.2-1.1-2.4-2-3.5-3C72.1,29,72.2,28.9,72.2,28.9z"/>
	<path class="st0" d="M86.7,23.3c0-0.6-0.3-0.9-0.9-0.9c-0.1,0-0.2,0-0.3,0c-1.2,0-2.4,0-3.5,0c-0.4,0-0.9,0-1.3,0.1
		c-2.1,0.5-3.6,2.2-3.7,4.4c-0.1,1.6,0,3.3,0,4.9c0,0.1,0,0.2,0.1,0.3c0.5,0,1,0,1.6,0c0-0.8,0-1.6,0.1-2.3c2.1,0,4.2,0,6.3,0
		c0.1,0.8,0,1.6,0.1,2.3c0.6,0,1.1,0,1.7,0c0-0.3,0-0.5,0-0.8c0-2.2,0-4.5,0-6.7C86.7,24.1,86.7,23.7,86.7,23.3z M85,27.8
		c-0.4,0.1-5.4,0.2-6.2,0c-0.5-1.8,0.6-3.5,2.4-3.8c0.5-0.1,1-0.1,1.5-0.1c0.8,0,1.5,0,2.2,0C85,24.5,85.1,26.9,85,27.8z"/>
	<path class="st0" d="M133.1,22.3c-1.1-0.1-2.3-0.1-3.5-0.1c-2.5,0.2-3.8,2.2-3.7,4.1c0,0.7,0,1.4,0,2.1c0.1,1.8,1.3,3.3,3.1,3.7
		c0.7,0.1,2.3,0.1,2.2,0.1c0.5,0,1,0,1.5,0c2-0.1,3.6-1.5,3.7-3.5c0.1-1,0.1-2,0-3C136.3,23.9,134.9,22.4,133.1,22.3z M134.8,28.3
		c-0.1,1.4-1,2.2-2.4,2.2c-0.4,0-0.8,0-1.2,0c0,0,0,0,0,0c-0.4,0-0.9,0-1.3,0c-1.3,0-2.1-0.9-2.2-2.1c0-0.7,0-1.5,0-2.2
		c0-1.3,0.8-2.1,2.1-2.2c1-0.1,1.9-0.1,2.9,0c1.2,0.1,2,0.9,2.1,2.1C134.8,26.8,134.8,27.6,134.8,28.3z"/>
	<path class="st0" d="M105.3,22.3c-0.1,0-0.3,0-0.4,0c-0.6,0.1-0.9,0.3-0.9,0.9c0,2.2,0,4.4,0,6.6c0,1,0.7,1.8,1.6,2.1
		c0.3,0.1,0.6,0.1,0.9,0.1c1.9,0,3.8,0,5.7,0c0.2,0,0.3,0,0.5-0.1c0-0.6,0-1.1,0-1.7c-0.3,0-0.5,0-0.7,0c-1.8,0-3.6,0-5.4,0
		c-0.8,0-1-0.2-1-1c0-1.6,0-3.2,0-4.9V24c0.6,0,1.3,0,1.9,0c0.6,0,1.1,0,1.7,0c0.6,0,1.2,0,1.8,0c0.6,0,1.2,0,1.7,0
		c0-0.6,0-1.1,0-1.6c-0.3,0-0.5,0-0.7,0C109.8,22.3,107.5,22.3,105.3,22.3z"/>
	<path class="st0" d="M102.1,30.4c-0.3,0-0.5,0-0.8,0c-1.8,0-3.6,0-5.4,0c-0.7,0-0.9-0.2-0.9-0.9c0-1.5,0-3,0-4.5
		c0-0.7,0.2-0.9,0.9-0.9c0.1,0,0.3,0,0.4,0c1.7,0,3.4,0,5.1,0c0.2,0,0.4,0,0.7,0c0-0.6,0-1.1,0-1.6c-0.2,0-0.3-0.1-0.4-0.1
		c-2,0-4,0-6,0c-1.3,0-2.1,0.7-2.3,1.9c-0.1,0.2-0.1,0.5-0.1,0.7c0,1.5,0,3,0,4.6c0,1.6,1,2.6,2.6,2.6c1.9,0,3.8,0,5.7,0
		c0.2,0,0.3,0,0.5-0.1c0-0.4,0-0.7,0-1.1C102.2,30.8,102.2,30.6,102.1,30.4z"/>
	<path class="st0" d="M48.4,22.3c-2.5,0-5,0-7.5,0c-0.7,0-1,0.3-1,1.2c0,2.7,0,5.3,0,8c0,0.2,0,0.4,0,0.5c0.6,0,1.1,0,1.7,0
		c0-1.4,0-2.7,0-4c0-1.3-0.1-2.6,0.1-4c2.4,0,4.7,0,7.1,0c0.1-0.6,0.1-1.1,0-1.6C48.6,22.3,48.5,22.3,48.4,22.3z"/>
	<path class="st0" d="M50.4,32c0.5,0,1,0,1.5,0c0-3.2,0-6.4,0-9.7c-0.6,0-1.1,0-1.5,0C50.3,23,50.3,31.5,50.4,32z"/>
	<path class="st0" d="M42.4,28c0.7,0.1,5,0.1,5.5,0c0-0.5,0-1,0-1.6c-1.9,0-3.7,0-5.5,0C42.4,26.9,42.4,27.4,42.4,28z"/>
	<path class="st0" d="M106.5,28c1.9,0,3.6,0,5.5,0v-1.6c-1.8,0-3.7,0-5.5,0C106.5,26.9,106.5,27.4,106.5,28z"/>
	<g>
		<path class="st0" d="M15.8,10.3c-7.1,2.4-12,9.9-10.2,18.3c0,0.2,0.1,0.4,0.2,0.6C5.9,29.1,6,29.1,6,29.1C5.9,28,6,27,6.2,25.9
			c1-5.7,6.1-10.5,12.7-10.3c4,0.1,7.3,1.8,9.7,4.9c0.1,0.1,0.2,0.3,0.4,0.5c0.7-1,1.3-2,1.9-3c-0.1-0.2-0.2-0.3-0.3-0.4
			c-3.4-3.7-7.6-5.4-12.6-4.8c-4.1,0.5-7.3,2.5-9.7,5.8c-1.4,1.9-2.2,4-2.5,6.3c0,0.2,0,0.3-0.2,0.4c0.1-0.5,0.1-1,0.2-1.5
			c1.6-7.6,8.9-12.7,16.7-11.3c8.3,1.5,12.6,9.1,11.8,15.7c-0.6,5.2-3.3,9-7.9,11.5c-0.3,0.1-0.6,0.2-0.9,0.4
			c0.1-0.1,0.3-0.2,0.4-0.3c3.3-1.5,5.4-4.1,6.6-7.4c0.2-0.6,0.4-1.2,0.5-1.8c0.5-3.2-0.3-6.1-2.1-8.7c-0.1-0.2-0.3-0.4-0.5-0.6
			c-0.2,0.2-0.3,0.4-0.4,0.6c-0.3,0.4-0.3,0.7-0.1,1.1c1.4,3.1,1.7,6.2,0.5,9.4c-1.5,4.4-4.6,7.2-9.1,8.3c-0.1,0-0.3,0-0.4,0
			c8.8-2.2,11.6-11.6,8.2-17.5c0,0.1-0.1,0.1-0.1,0.2c-0.7,1.1-1.3,2.1-2,3.2c-0.2,0.2-0.1,0.5-0.1,0.7c0.4,1.3,0.5,2.6,0.4,4
			c-0.4,4-3.3,7.7-7.2,8.9c-0.8,0.2-1.7,0.4-2.6,0.6c0.7,0.1,1.4,0.2,2.1,0.3c0.8,0,1.6-0.1,2.4-0.1c0.9,0.1,1.7-0.1,2.6-0.3
			c8.1-1.9,13.3-9.9,11.8-18.1C34.9,13,25.1,7.1,15.8,10.3z"/>
		<path class="st0" d="M19.6,35.4c0,0.1,0.1,0.1,0.2,0.3c0.9-1.5,1.8-2.9,2.7-4.3c0.3-0.4,0.3-0.7,0.1-1.2c-1.2-3.5-4.8-5.8-8.6-5.1
			c-3.9,0.7-6.7,4.4-6.2,8.3c0,0.1,0.1,0.2,0.1,0.4c0-0.2,0-0.3,0.1-0.4c0-0.1,0-0.2,0-0.2c0.3-1.3,1.1-2.2,2.3-2.7
			c0.7-0.2,1.4-0.4,2.1-0.3C15.7,30.8,18.2,32.4,19.6,35.4z"/>
		<path class="st0" d="M13,20.5c1.9-0.8,3.9-1,5.9-0.6c3.3,0.6,5.7,2.5,7.4,5.4c0.8-1.2,1.5-2.4,2.2-3.5c-3-4.7-9.6-7.1-15.5-4.2
			c-6,2.9-7.8,9.5-6.4,14C6.1,25.7,9.7,21.8,13,20.5z"/>
		<path class="st0" d="M13.8,24c3.4-0.8,7.9,0.7,9.8,5.5c0.7-1.1,1.3-2.1,1.9-3.1c0.2-0.3,0-0.5-0.1-0.7c-2.8-5.2-9.6-6.7-14.4-3.3
			C7.9,24.8,6.7,28,7,31.9c0,0.3,0.1,0.6,0.2,0.8C7.1,28.1,10.3,24.9,13.8,24z"/>
		<path class="st0" d="M17.9,40.3c6.3-0.7,10-7,8.4-12.2c-0.1,0.1-0.1,0.1-0.2,0.2c-0.6,1-1.3,2-1.9,3.1c-0.1,0.2-0.1,0.5-0.2,0.7
			c-0.1,0.6,0,1.1-0.1,1.7c-0.7,3.1-2.5,5.3-5.5,6.4C18.3,40.1,18.2,40.2,17.9,40.3z"/>
		<path class="st0" d="M22.8,33.5c-1.2,1.9-2.3,3.7-3.5,5.5C21.3,38.1,23.2,35,22.8,33.5z"/>
		<path class="st0" d="M5.9,29.7C6,29.7,6,29.7,5.9,29.7C6,29.5,6,29.3,6,29.1l0,0c0,0,0,0,0,0c0,0,0,0,0,0C6,29.3,6,29.5,5.9,29.7z
			"/>
	</g>
</g>
</svg>
