<?xml version="1.0" encoding="utf-8"?>
<!-- Generator: Adobe Illustrator 27.1.0, SVG Export Plug-In . SVG Version: 6.00 Build 0)  -->
<svg version="1.1" id="Capa_1" xmlns="http://www.w3.org/2000/svg" xmlns:xlink="http://www.w3.org/1999/xlink" x="0px" y="0px"
	 viewBox="0 0 141.7 50" style="enable-background:new 0 0 141.7 50;" xml:space="preserve">
<style type="text/css">
	.st0{fill:#FFFFFF;}
</style>
<g>
	<path class="st0" d="M56.8,37.9c-0.3-0.5-0.7-0.9-1.2-1.1c-0.6-0.3-1.3-0.4-2.1-0.4c-0.7,0-1.3,0.2-1.9,0.5
		c-0.5,0.3-0.9,0.8-1.2,1.4c-0.3,0.6-0.4,1.4-0.4,2.3v2.2c0,0.9,0.1,1.6,0.4,2.2c0.3,0.6,0.7,1.1,1.2,1.4c0.5,0.3,1.2,0.5,1.9,0.5
		c0.8,0,1.5-0.1,2.1-0.4c0.5-0.2,0.8-0.6,1.1-1.1v1.3h1.4V32.4h-1.4V37.9z M56.8,43c0,0.4-0.1,0.9-0.3,1.3c-0.2,0.4-0.5,0.7-0.9,1
		c-0.4,0.3-0.9,0.4-1.4,0.4c-0.9,0-1.5-0.3-2-0.8c-0.5-0.5-0.7-1.2-0.7-2.1v-2.2c0-0.9,0.2-1.7,0.7-2.2c0.5-0.5,1.1-0.8,2-0.8
		c0.5,0,1,0.1,1.4,0.4c0.4,0.3,0.7,0.6,0.9,1c0.2,0.4,0.3,0.8,0.3,1.3V43z"/>
	<path class="st0" d="M45.8,36.9c-0.6-0.4-1.3-0.6-2.2-0.6c-0.9,0-1.7,0.2-2.3,0.6c-0.6,0.4-1.1,0.9-1.5,1.6
		c-0.3,0.7-0.5,1.6-0.5,2.6v1.2c0,1,0.2,1.8,0.5,2.5c0.4,0.7,0.9,1.2,1.5,1.6c0.7,0.4,1.5,0.5,2.4,0.5c0.6,0,1.3-0.1,1.9-0.4
		c0.6-0.3,1.2-0.6,1.7-1.1l-1-0.9c-0.4,0.4-0.8,0.6-1.2,0.8c-0.5,0.2-0.9,0.3-1.4,0.3c-1,0-1.8-0.3-2.3-0.8
		c-0.6-0.6-0.8-1.4-0.8-2.4v-0.1h7.1V41c0-1-0.2-1.8-0.5-2.6C46.8,37.8,46.4,37.2,45.8,36.9z M46.3,40.9h-5.7c0-1,0.3-1.8,0.8-2.4
		c0.5-0.6,1.3-0.9,2.2-0.9c0.9,0,1.5,0.3,2,0.8C46.1,39,46.3,39.8,46.3,40.9L46.3,40.9z"/>
	<rect x="61.6" y="36.5" class="st0" width="1.4" height="10.3"/>
	<path class="st0" d="M20.4,35.5c0.3-0.6,0.7-1.1,1.3-1.4c0.5-0.3,1.2-0.5,1.9-0.5c0.5,0,1,0.1,1.5,0.3c0.5,0.2,0.9,0.6,1.3,1
		c0.4,0.4,0.6,0.9,0.8,1.4h1.4c-0.2-0.8-0.5-1.5-0.9-2.1c-0.5-0.6-1-1.1-1.7-1.4c-0.7-0.3-1.4-0.5-2.3-0.5c-1,0-1.9,0.2-2.6,0.7
		c-0.8,0.4-1.3,1.1-1.8,1.9c-0.4,0.8-0.6,1.7-0.6,2.8v3.9c0,1.1,0.2,2,0.6,2.8c0.4,0.8,1,1.4,1.8,1.9c0.8,0.4,1.6,0.7,2.6,0.7
		c0.8,0,1.6-0.2,2.3-0.5c0.7-0.3,1.3-0.8,1.7-1.4c0.5-0.6,0.8-1.3,0.9-2.1H27c-0.2,0.6-0.4,1.1-0.8,1.5c-0.4,0.4-0.8,0.7-1.3,0.9
		c-0.5,0.2-1,0.3-1.5,0.3c-0.7,0-1.3-0.2-1.9-0.5c-0.5-0.3-1-0.8-1.3-1.4c-0.3-0.6-0.4-1.3-0.4-2.1v-3.9
		C19.9,36.8,20.1,36.1,20.4,35.5z"/>
	<path class="st0" d="M35.8,36.3c-0.7,0-1.4,0.2-2,0.5c-0.5,0.3-0.9,0.7-1.3,1.1v-1.5h-1.4v10.3h1.4v-6.5c0-0.8,0.2-1.4,0.7-1.9
		c0.5-0.5,1.1-0.7,2-0.7c0.4,0,0.8,0.1,1.1,0.2c0.3,0.1,0.6,0.3,0.8,0.5l0.9-1.2c-0.3-0.3-0.6-0.5-1-0.6
		C36.7,36.4,36.3,36.3,35.8,36.3z"/>
	<polygon class="st0" points="121,16.9 120.9,6 110.1,5.9 110.2,10 98.5,3.1 77.8,15.6 68.7,10.3 68.7,13.2 91.3,25.7 92.6,24.1 
		79.9,16.8 98.5,5.9 112.3,13.8 112.3,8.1 118.6,8.2 118.9,18 132.1,26 133.3,24.3 	"/>
	<polygon class="st0" points="39,3.1 27.3,10 27.4,5.9 16.5,6 16.5,16.9 4.2,24.3 5.4,26 18.6,18 18.9,8.2 25.2,8.1 25.2,13.8 
		38.9,5.9 57.6,16.8 44.9,24.1 46.2,25.7 68.7,13.2 68.7,10.3 59.6,15.6 	"/>
	<path class="st0" d="M107.8,41.1c-0.5-0.1-1.1-0.2-1.8-0.3c0,0,0,0-0.1,0h-0.1c0,0-0.1,0-0.1,0c0,0-0.1,0-0.1,0
		c-0.7,0-1.2-0.1-1.6-0.2c-0.4-0.1-0.7-0.2-1-0.4c-0.3-0.2-0.4-0.5-0.4-0.9c0-0.6,0.2-1,0.7-1.4c0.5-0.3,1.1-0.5,2-0.5
		c0.5,0,1,0.1,1.5,0.2c0.5,0.2,1,0.4,1.5,0.7l0.8-1c-0.3-0.2-0.7-0.4-1.1-0.6c-0.4-0.2-0.8-0.3-1.3-0.4c-0.4-0.1-0.9-0.1-1.3-0.1
		c-0.9,0-1.6,0.1-2.2,0.4c-0.6,0.2-1.1,0.6-1.4,1.1c-0.3,0.5-0.5,1-0.5,1.7c0,0.7,0.2,1.2,0.5,1.6c0.3,0.4,0.7,0.6,1.1,0.7
		c0.5,0.1,1,0.2,1.7,0.3c0,0,0.1,0,0.1,0c0,0,0.1,0,0.1,0c0.1,0,0.1,0,0.2,0c0.1,0,0.1,0,0.2,0c0.7,0.1,1.3,0.1,1.6,0.2
		c0.4,0.1,0.7,0.2,1,0.5c0.3,0.2,0.4,0.6,0.4,1c0,0.6-0.3,1.1-0.8,1.4c-0.5,0.3-1.3,0.5-2.3,0.5c-0.5,0-1.1-0.1-1.7-0.3
		c-0.6-0.2-1.2-0.5-1.7-0.9l-0.8,1c0.3,0.3,0.7,0.5,1.2,0.8c0.5,0.2,0.9,0.4,1.5,0.5c0.5,0.1,1.1,0.2,1.6,0.2c0.9,0,1.7-0.1,2.4-0.4
		c0.7-0.2,1.2-0.6,1.5-1.1c0.3-0.5,0.5-1,0.5-1.7c0-0.8-0.2-1.4-0.5-1.8C108.8,41.6,108.3,41.3,107.8,41.1z"/>
	<rect x="61.6" y="32.4" class="st0" width="1.4" height="1.4"/>
	<path class="st0" d="M96.8,36.8c-0.6-0.3-1.3-0.4-2.2-0.4c-0.8,0-1.5,0.1-2.1,0.4c-0.6,0.3-1.1,0.6-1.5,1.1l1,0.7
		c0.4-0.3,0.8-0.5,1.2-0.7c0.5-0.2,0.9-0.2,1.4-0.2c0.8,0,1.4,0.2,1.9,0.7c0.4,0.5,0.7,1.1,0.7,1.9v0.4h-3.3c-1.1,0-2,0.3-2.6,0.8
		c-0.6,0.5-0.9,1.3-0.9,2.2c0,1,0.3,1.8,1,2.3c0.7,0.6,1.6,0.8,2.8,0.8c0.5,0,0.9,0,1.3-0.1c0.4-0.1,0.8-0.2,1.1-0.4
		c0.2-0.1,0.4-0.2,0.6-0.4v0.7h1.4v-6.6c0-0.8-0.2-1.5-0.5-2.1S97.4,37.1,96.8,36.8z M97.2,44.5c0,0.3-0.2,0.6-0.7,0.8
		c-0.5,0.2-1.2,0.3-2.1,0.3c-0.8,0-1.5-0.2-1.9-0.5c-0.5-0.3-0.7-0.8-0.7-1.3c0-0.5,0.2-1,0.5-1.3c0.4-0.3,0.9-0.4,1.5-0.4h3.3V44.5
		z"/>
	<path class="st0" d="M118,36.8c-0.6-0.3-1.3-0.4-2.2-0.4c-0.8,0-1.5,0.1-2.1,0.4c-0.6,0.3-1.1,0.6-1.5,1.1l1,0.7
		c0.4-0.3,0.8-0.5,1.2-0.7c0.5-0.2,0.9-0.2,1.4-0.2c0.8,0,1.4,0.2,1.9,0.7c0.4,0.5,0.7,1.1,0.7,1.9v0.4h-3.3c-1.1,0-2,0.3-2.6,0.8
		c-0.6,0.5-0.9,1.3-0.9,2.2c0,1,0.3,1.8,1,2.3c0.7,0.6,1.6,0.8,2.8,0.8c0.5,0,0.9,0,1.3-0.1c0.4-0.1,0.8-0.2,1.1-0.4
		c0.2-0.1,0.4-0.2,0.6-0.4v0.7h1.4v-6.6c0-0.8-0.2-1.5-0.5-2.1C119.1,37.5,118.6,37.1,118,36.8z M118.5,44.5c0,0.3-0.2,0.6-0.7,0.8
		c-0.5,0.2-1.2,0.3-2.1,0.3c-0.8,0-1.5-0.2-1.9-0.5c-0.5-0.3-0.7-0.8-0.7-1.3c0-0.5,0.2-1,0.5-1.3c0.4-0.3,0.9-0.4,1.5-0.4h3.3V44.5
		z"/>
	<path class="st0" d="M68.1,33.5h-1.4v3h-1.1v1.2h1.1v6.4c0,0.9,0.2,1.6,0.6,2c0.4,0.5,1,0.7,1.8,0.7h1.2v-1.3h-1
		c-0.4,0-0.7-0.1-0.9-0.4c-0.2-0.2-0.3-0.6-0.3-1v-6.4h2.1v-1.2h-2.1V33.5z"/>
	<path class="st0" d="M80.2,35.5c0.3-0.6,0.7-1.1,1.3-1.4c0.5-0.3,1.2-0.5,1.9-0.5c0.5,0,1,0.1,1.5,0.3c0.5,0.2,0.9,0.6,1.3,1
		c0.4,0.4,0.6,0.9,0.8,1.4h1.4c-0.2-0.8-0.5-1.5-0.9-2.1c-0.5-0.6-1-1.1-1.7-1.4c-0.7-0.3-1.4-0.5-2.3-0.5c-1,0-1.9,0.2-2.6,0.7
		c-0.8,0.4-1.3,1.1-1.8,1.9c-0.4,0.8-0.6,1.7-0.6,2.8v3.9c0,1.1,0.2,2,0.6,2.8c0.4,0.8,1,1.4,1.8,1.9c0.8,0.4,1.6,0.7,2.6,0.7
		c0.8,0,1.6-0.2,2.3-0.5c0.7-0.3,1.3-0.8,1.7-1.4s0.8-1.3,0.9-2.1h-1.4c-0.2,0.6-0.4,1.1-0.8,1.5c-0.4,0.4-0.8,0.7-1.3,0.9
		c-0.5,0.2-1,0.3-1.5,0.3c-0.7,0-1.3-0.2-1.9-0.5c-0.5-0.3-1-0.8-1.3-1.4c-0.3-0.6-0.4-1.3-0.4-2.1v-3.9
		C79.7,36.8,79.9,36.1,80.2,35.5z"/>
	<path class="st0" d="M129.5,32.1c-0.1,0.4-0.2,0.7-0.3,0.9c-0.1-0.2-0.1-0.4-0.3-0.8l-1.3-3.8h-1.1v5.3h0.7v-4.5l1.5,4.5h0.6
		l1.5-4.4v4.4h0.7v-5.3h-0.9L129.5,32.1z"/>
	<path class="st0" d="M136.7,32.3c-0.2-0.3-0.4-0.5-0.6-0.7c-0.1-0.1-0.2-0.2-0.4-0.3c0.5-0.1,0.9-0.2,1.1-0.5
		c0.2-0.3,0.4-0.6,0.4-1c0-0.3-0.1-0.6-0.2-0.8c-0.1-0.2-0.3-0.4-0.6-0.5c-0.2-0.1-0.6-0.1-1.1-0.1h-2.4v5.3h0.7v-2.4h0.8
		c0.2,0,0.3,0,0.4,0c0.1,0,0.2,0.1,0.3,0.1c0.1,0.1,0.2,0.2,0.4,0.4c0.1,0.2,0.3,0.4,0.5,0.7l0.7,1.1h0.9L136.7,32.3z M135.1,30.8
		h-1.5V29h1.7c0.4,0,0.7,0.1,0.9,0.2c0.2,0.2,0.3,0.4,0.3,0.6c0,0.2,0,0.3-0.1,0.5c-0.1,0.1-0.2,0.3-0.4,0.3
		C135.7,30.7,135.5,30.8,135.1,30.8z"/>
</g>
</svg>
