<?xml version="1.0" encoding="UTF-8"?>
<svg id="Capa_1" data-name="Capa 1" xmlns="http://www.w3.org/2000/svg" viewBox="0 0 200 200">
  <defs>
    <style>
      .cls-1 {
        fill: #fff;
      }
    </style>
  </defs>
  <path class="cls-1" d="m114.25,102.87c-.05-.06-.08-.12-.12-.17-.04.04-.08.09-.13.14-3.85,4.21-8.81,6.54-13.95,6.56h-.08c-5.08,0-9.99-2.26-13.82-6.36,0,0,0,0,0,0-3.7,5.1-7.43,10.17-11.16,15.25l-4.93,6.71c8.37,0,16.73,0,25.1,0h9.43c8.38,0,16.76,0,25.15,0l-4.47-6.36c-3.68-5.24-7.37-10.49-11.02-15.75Z"/>
  <path class="cls-1" d="m80.97,98.07c.14-.19.2-.3.22-.35-.03-.02-.1-.11-.24-.27-3.69-3.9-7.35-7.83-11.01-11.76l-3.85-4.13c0,5.1,0,10.19,0,15.29v6.52c0,4.96,0,9.92,0,14.88l4.14-5.63c3.57-4.86,7.14-9.71,10.73-14.55Z"/>
  <path class="cls-1" d="m100.06,25.01c-41.42-.08-74.97,33.42-75.06,74.93-.09,41.4,33.42,74.97,74.93,75.06,41.4.09,74.99-33.44,75.07-74.93.08-41.41-33.43-74.98-74.94-75.06Zm38.66,104.86c-1.5,1.49-3.49,2.3-5.61,2.3-.05,0-.1,0-.15,0-7.87-.14-15.89-.12-23.64-.09-3.14,0-6.28.02-9.42.02h-33.09c-4.81,0-7.92-3.12-7.92-7.93,0-15.96,0-31.93,0-47.89,0-4.87,3.15-8.01,8.03-8.01h66.17c4.86,0,8,3.16,8,8.04,0,4.32,0,8.64,0,12.97-.01,11.39-.03,23.18.07,34.76.02,2.15-.87,4.27-2.44,5.83Z"/>
  <path class="cls-1" d="m91.72,98.52c2.3,2.44,5.23,3.79,8.26,3.79h0c3.05,0,6-1.36,8.33-3.83,5.88-6.26,11.72-12.55,17.57-18.84l3.86-4.16c-8.33,0-16.67,0-25,0h-8.89c-8.54,0-17.07,0-25.6,0l4.72,5.08c5.57,6,11.15,12,16.76,17.96Z"/>
  <path class="cls-1" d="m129.8,85.93c-3.49,3.75-6.98,7.49-10.5,11.21-.11.12-.17.2-.21.25.03.06.08.15.18.3,3.55,5,7.08,10.02,10.6,15.04l4.02,5.71c0-4.77,0-9.55,0-14.32v-7.61c0-4.99,0-9.98,0-14.97-1.37,1.46-2.73,2.93-4.1,4.4Z"/>
</svg>