<?xml version="1.0" encoding="UTF-8"?>
<svg id="Capa_1" data-name="Capa 1" xmlns="http://www.w3.org/2000/svg" viewBox="0 0 500 500">
  <path d="m277.5,208.1c2.1-2.1,3.2-1.7,5,.2,6.2,6.5,12.6,12.8,19,19.1,9,8.9,19.7,8.9,28.7,0,20-20,40-40,60.1-60,4.5-4.5,4.5-7,0-11.6-26.7-26.7-53.4-53.4-80.2-80.2-4.9-4.9-7.3-5-12.1,0-13.1,13.1-26.3,26.2-39.4,39.5-2,2-3.1,1.9-5,0-5.9-6.1-11.9-12-17.9-18-10.4-10.4-20.5-10.4-30.8-.1-17.7,17.7-35.4,35.5-53.2,53.2-3.9,3.9-2.9,3.7-6.7-.1-3.2-3.1-6.3-6.4-9.5-9.5-3.6-3.5-6.4-3.5-10,0-5.1,5-10.1,10-15.1,15.1-5.1,5.1-5.1,7.3,0,12.4,35.9,35.9,71.8,71.8,107.7,107.7,5.8,5.8,5.9,5.9,0,11.5-2.7,2.6-4.1,5.4-3.9,9.2.3,4.3,0,8.7,0,13.1,0,5-.1,10,0,15,.1,4.1-3.5,5.4-5.6,7.8-.5.5-1.1,0-1.6-.4-5.7-3.5-6.4-3.4-11.1,1.3-27.5,27.5-55,55-82.5,82.5-5.1,5.1-5,5-.1,10.2,2.4,2.6,3.8,2.9,6.6.1,26.4-26.7,53-53.1,79.5-79.7,2.2-2.2,3.3-2.3,5.5,0,17.4,17.6,34.8,35,52.4,52.4,2,2,2.1,3.1,0,5-5.3,5.1-10.4,10.4-15.7,15.5-2.5,2.4,0,3.5,1.2,4.2,2.4,1.4,3.4,7.2,7,4,7.8-6.8,14.8-14.4,22.1-21.8,2.9-2.9,2.7-5.9,0-8.9-1.7-1.8-3.4-3.7-5.3-5.3-2-1.7-1.6-2.8.1-4.4,9.4-9.3,18.8-18.6,28-28.1,2.5-2.6,3.9-2.9,6.6-.1,16.7,17,33.6,33.8,50.4,50.6,5,5,7.3,5,12.1.1,4.7-4.7,9.3-9.3,14-14,5.1-5.1,5.1-7.4,0-12.4-17.1-17.1-34.2-34.2-51.4-51.3-1.8-1.8-2.2-3,0-4.7,1.8-1.5,3.4-3.3,5-5,3-3.2,3.1-6.1,0-9.2-15.6-15.7-31.4-31.4-47.1-47.1-2-2-4.5-2.9-7.1-1.4-1.9,1.1-2.4.8-2.8-1.4-1-5.4-3.5-10.1-7.1-14.2-3.6-4-6.6-4.1-10.5-.5-2.3,2.2-4.3,6.4-7.1,6-2.6-.4-4.7-4.2-7.1-6.3-1.9-1.6-2.1-2.8-.1-4.7,11.7-11.6,23.4-23.2,34.9-34.9Zm22-1.5c-.9,1.5-1.7.4-2.3-.2-2.5-2.4-4.9-4.9-7.4-7.4-.7-.7-1.5-1.5-.4-2.5,3.6-3.6,7.2-7.2,11-10.7.9-.8,2.2-1.2,3.5-1.1,2.8.1,5,1.4,6.2,4,1.3,2.7.8,5.1-1.1,7.3-3.1,3.6-7,6.4-9.4,10.6Zm-32.6-83.7c11.5-11.3,22.9-22.6,34.1-34.1,2.1-2.1,3.2-2.5,5.5-.1,23.3,23.5,46.6,46.8,70.1,70.1,2.2,2.2,2.3,3.3,0,5.5-18.3,18.1-36.4,36.3-54.5,54.4-1.8,1.8-3.6,3.5-7.4,3.4-1.7,0-3.7-1.3-5-3.7-1.3-2.6-1-5.1.9-7.3,1.8-2.1,3.8-3.9,5.7-5.9,8.1-8.4,8.2-19.3-.1-27.6-16.4-16.4-32.7-32.9-49.2-49.2-2.1-2.1-2.4-3.3-.1-5.5Zm-128.8,40.4c-10.3,9.6-5.4,9.6-15.7,0-1.4-1.3-1.6-2.4,0-3.6.3-.2.5-.5.8-.8,7.7-7.8,8.8-7.7,15.4,1.3.3.4.6.8,1,1.3-.5.6-.9,1.2-1.4,1.7Zm227.1,223.5c1.8,1.8,1.7,2.9,0,4.4-2,1.7-3.7,3.7-5.6,5.5-.5.5-1.1,1-1.5,1.3-1.2,0-1.7-.9-2.3-1.4-15.9-15.8-31.7-31.7-47.6-47.5-1.7-1.7-1.6-2.7,0-4.2,2-1.7,3.8-3.6,5.5-5.5,1.6-1.8,2.6-1.4,4.2.1,15.7,15.8,31.5,31.6,47.3,47.3Zm-87.3-107.3c1.5-1.5,2.4-1.6,3.9,0,11.8,11.9,23.7,23.8,35.6,35.7,1.4,1.4,1.8,2.3.2,3.9-6.1,5.9-12,11.9-18,17.9-.5.5-1.1.9-1.5,1.3-1.2-.1-1.7-.9-2.3-1.5-11.8-11.8-23.6-23.6-35.4-35.4-1.5-1.5-1.9-2.5-.2-4.2,6-5.8,11.9-11.7,17.7-17.7Zm-19.2-16.8c2.4-2.5,3.2-1.7,4,1.1,1.9,7.2.3,13.6-4.8,19-3.6,3.8-7.4,7.4-11.1,11.1-3.6,3.7-3.7,6.2-.5,10,9.7,11.4,10.2,25,1.1,36.9-1.1,1.5-1.5,2.4,0,3.7.9.7,1.6,1.6,2.4,2.4q4.5,4.5,8.4-.9c4.6-6.5,6.9-13.7,7.4-22.3,1,.7,1.5,1,1.9,1.5,6.6,6.6,13.2,13.2,19.9,19.8,1.4,1.4,1.9,2.3.2,3.9-10,9.9-20,19.9-29.9,29.9-1.6,1.6-2.5,1.3-3.9-.1-11.9-11.9-23.7-23.9-35.7-35.7-1.5-1.5-1.6-2.7,0-3.9,6.8-4.7,8.3-11.3,7.7-19.2-.6-7.1,0-14.2-.2-21.3,0-2,.5-3.5,1.9-4.9,10.4-10.3,20.7-20.5,30.9-31Zm-17.3,1.7c-1,.7-2.4,1.5-3.5,2.6q-5.9,5.8-11.8,0-3.8-3.8,0-7.5,5.9-5.9,11.7,0c1.2,1.2,2.7,2.1,3.6,4.9Zm-24.1-12.6c-2.8,2.8-4.1,2.4-6.6-.1-23-23.2-46.1-46.3-69.3-69.3-2.3-2.3-2.5-3.4,0-5.8,24.2-24,48.2-48.1,72.3-72.2,1.8-1.8,3.5-3.6,6.3-3.6,2.9-.1,4.8,1.8,6.7,3.6,17.5,17.6,35.1,35.1,52.6,52.6,5,5,10,10.1,15.1,15.1,1.4,1.4,2,2.2-.2,3.6-2,1.2-3.7,2.9-5.4,4.6-23.8,23.8-47.7,47.5-71.4,71.5Z"/>
</svg>