<?xml version="1.0" encoding="UTF-8"?>
<svg id="Capa_1" data-name="Capa 1" xmlns="http://www.w3.org/2000/svg" viewBox="0 0 500 500">
  <path d="m222.2,385.7c0-9.7-.2-10-10.1-10.1-2.6,0-3.4-.8-3.4-3.4.1-9-.2-18,.1-26.9.4-14.4-5.1-25.8-16.1-34.9-9.1-7.6-17.6-16-27-23.1-7.1-5.3-9.7-11.5-9.5-20.2.3-11.8-.3-23.7-1.2-35.5-.8-11.2-10.2-17.8-21.1-15.4-2.4.5-2.9-.3-3.7-2.1-3.6-8.8-12.2-13.2-21.2-10.9-7.9,2-13.5,9.1-13.3,17.7.4,25.1,2,50.1,3.1,75.1,1.2,25.5,10.2,47.8,26,67.5,3.1,3.9,6.5,7.6,9.9,11.6-2.3.8-4.2.5-6,.5-5.7.1-7.2,1.4-7.2,7.1,0,11.5,0,22.9,0,34.4,0,5.2,1.6,6.7,6.8,6.7,29,0,58,0,87,0,5.3,0,6.9-1.7,6.9-6.9,0-10.3,0-20.7,0-31Zm-85.7-159.8c3.1-.8,6.4.8,7.8,3.7.6,1.4.8,2.9.8,4.4.4,12.3.8,24.7,1.3,37,0,2.1-.2,3.3-2.8,3-3-.3-5.9.5-9.2,1.7-.5-8.7-1-17-1.4-25.3-.3-6.1-.4-12.2-.9-18.3-.3-3.5,1-5.5,4.3-6.3Zm-26.3,80.3c-1.7-12.3-1.9-24.8-2.5-37.3-.3-5.2,0-10.5,0-15.7-.5,0-1.1,0-1.6,0,0-11,0-21.9,0-32.9,0-4.1,2.6-7.1,6.3-7.7,3.8-.6,7.4,1.5,8.6,5.1.3.9.4,2,.4,2.9,1.1,21.3,2.2,42.6,3.4,63.8,0,1.4-.3,2.7-.7,4-2,7.8-.4,14.8,5.6,20.1,13.7,12.2,27.6,24.2,41.4,36.3,2.8,2.4,6,2.3,7.9,0,2-2.5,1.6-5.2-1.4-7.8-13-11.4-26.1-22.8-39.2-34.2-2.1-1.8-4-3.7-4.6-6.6-.9-4.3.9-8.4,4.5-10.6,3.5-2.1,8-1.8,11.5,1.1,5.3,4.4,10.4,9,15.6,13.5,7.4,6.5,14.9,13,22.3,19.4,7.2,6.2,10.9,14,10.9,23.6,0,9.6-.1,19.2,0,28.8,0,2.9-1,3.5-3.7,3.5-13.9-.1-27.7,0-41.6,0-1.7,0-3.1-.3-4.4-1.5-20.1-18.5-35-40.1-38.7-67.7Zm98.4,107.3c-12.2-.1-24.5,0-36.7,0-12.1,0-24.2-.1-36.3,0-3.2,0-4-1-3.9-4,.2-6.7.2-13.4,0-20.2,0-2.7.6-3.7,3.5-3.7,24.5,0,48.9,0,73.4,0,2.5,0,3.5.7,3.4,3.3-.2,7.1-.2,14.2,0,21.3,0,2.7-.9,3.3-3.4,3.3Z"/>
  <path d="m368.8,370.9c17.2-19.1,29.3-40.7,31.6-66.7,2.4-27.7,3.4-55.5,3.9-83.3.2-9.4-5.8-16.5-15-18.3-8.1-1.5-16.3,3.1-19.6,11.5-.8,2.1-1.6,2.4-3.8,1.9-7.4-1.7-14.4,1.2-18.3,7.2-2.3,3.5-2.8,7.4-2.9,11.4-.5,13.8-1,27.7-1.4,41.5,0,2.4-.9,3.9-2.6,5.4-11.8,10.2-23.6,20.4-35.3,30.7-9.4,8.2-14.1,18.5-14,31,0,8.5,0,17,0,25.4q0,6.7-6.9,6.9c-4.8.2-6.5,1.8-6.5,6.6,0,11.7,0,23.4,0,35.2,0,4.5,1.8,6.4,5.9,6.4,29.6,0,59.2,0,88.8,0,4,0,5.8-1.7,5.8-5.7,0-12.2,0-24.4,0-36.7,0-4-1.7-5.5-5.8-5.8-2.3-.2-4.7.4-7-.4,0-.4,0-.7.2-.9,1-1.1,2-2.2,3-3.3Zm-13.7-138.6c.2-4.8,4.4-7.5,8.7-6.3,2.6.8,4.3,2.2,4.1,5.4-.4,6.8-.7,13.7-1.1,21.8-.3,5.8-.8,12.9-1.1,20,0,1.9-.5,2.8-2.6,1.9-2.3-1-4.9-1.1-7.4-.9-1.7.1-2.2-.6-2.1-2.2.5-13.2.9-26.4,1.5-39.6Zm13.2,156.5c-.1,7.2-.1,14.4,0,21.7,0,2.6-1.1,3.1-3.4,3.1-12.3,0-24.7,0-37,0-12.2,0-24.5,0-36.7,0-2.4,0-3.3-.6-3.2-3.1.2-7.2.2-14.4,0-21.7,0-2.5.9-3.1,3.3-3.1,24.6,0,49.1,0,73.7,0,2.4,0,3.4.7,3.3,3.2Zm-3.8-28.8q-12.9,15.5-33,15.4c-9,0-18,0-27,0-2.4,0-3.2-.8-3.2-3.2.1-10.1,0-20.2,0-30.3,0-8.4,3.3-15.6,9.5-21.2,12.9-11.4,25.9-22.7,39-33.9,4.5-3.8,10.5-3.4,14.1.7,3.6,4.1,3.3,10.1-1.1,14-12.8,11.3-25.7,22.5-38.6,33.8-.8.7-1.5,1.3-2.3,2-2.7,2.5-3,5.2-1.1,7.6,2,2.3,5.1,2.4,8,0,3.7-3.1,7.3-6.4,11-9.6,9.7-8.5,19.3-16.9,29-25.4,6.9-6,9.1-13.4,6.8-22.2-1.3-4.8,0-9.7.2-14.5.7-17.4,1.7-34.9,2.7-52.3.3-5.5,3.3-8.6,8-8.4,4.6.1,7.4,3.5,7.4,8.9,0,10.5,0,20.9,0,31.4-.3,0-.5,0-.8,0-1,17.3-1.6,34.6-3.3,51.9-2.1,21.1-12,39.1-25.4,55.2Z"/>
  <path d="m250.7,165.8c-37.7-.2-68.6,30.1-68.9,67.4-.2,38.1,29.9,68.5,68.2,68.7,37,.2,67.9-30.1,68.1-66.9.3-38-29.9-69-67.5-69.2Zm30,117.1c-9.6,6-20,8.9-29.4,8.8-12.8-.2-22.9-3.1-32.2-9-1.8-1.1-2.3-2.3-1.9-4.3,1.7-10.4,6.9-18.5,15.9-24.2,2-1.2,3.6-1.5,5.9-.5,7.6,3.4,15.3,3.3,22.8-.2,1.8-.8,3.2-.8,4.8.2,9.5,5.7,14.9,14.1,16.5,24.9.3,2.1-.6,3.1-2.3,4.2Zm-48.1-54.3c0-9.6,7.7-17.4,17.3-17.4,9.8,0,17.5,7.8,17.5,17.6,0,9.6-7.9,17.3-17.5,17.2-9.7-.1-17.3-7.7-17.3-17.4Zm59.7,44c-1.9-6.8-4.7-12.9-9.3-18.1-2.5-2.8-5.1-5.6-8.4-7.4-2.6-1.4-1.9-2.7-.7-4.7,9.6-16.7.2-37.4-18.7-40.9-11.4-2.1-20.8,1.6-27.6,10.9-6.8,9.3-7.3,19.5-1.8,29.6,1.5,2.7,1.6,3.9-1.1,5.8-8.7,6.1-14.1,14.6-16.9,24.9-11.8-9.6-19.3-32.4-14-53.4,6.3-24.8,28.3-42.4,54.2-43.4,25.5-1,48.6,15,56.9,39.2,7.4,21.6.3,46.3-12.6,57.6Z"/>
  <path d="m274.9,95.9c-8.2-1.9-13.8-6-18.2-13.2-5.1-8.5-8.5-8.5-13.5,0-4.3,7.2-9.8,11.8-18.1,13.1-9.3,1.5-10.6,6-4.4,13.2,4.4,5.2,9.7,10.3,6.9,17.2,0,1.9,0,2.8,0,3.7-1,10.7,3.2,12.4,11.7,8.2,7.4-3.6,14.4-3.4,21.7.1,8.6,4.1,12.3,1.8,11.4-7.9,0-.2,0-.5,0-.7-1.4-8.1,1.4-14.5,6.8-20.6,6.7-7.6,5.7-10.7-4.2-13Zm-8,12.2c-4.5,4.6-5.8,9.9-4.9,16,.5,3.2-.8,3.7-3.4,2.4-5.5-2.9-11-3-16.7-.2-3.8,1.8-3.9,1.5-3.9-2.7,0-.9,0-1.7,0-3.3,1.8-5.1-2.2-8.7-5.3-12.5-2.1-2.5-1.6-3.6,1.4-4,6.6-.9,11.1-4.5,14.1-10.3,1.4-2.8,2.7-2.2,4,.1.6,1.1,1.6,2,2.1,3.1,2.2,4.9,6.9,5.7,11.3,6.9,4.1,1.2,4.4,1.5,1.5,4.6Z"/>
  <path d="m199.4,118.1c-11-1.8-18.6-7.5-23.8-17.4-2.3-4.3-6.4-4.1-9.3,0-2.5,3.4-4.9,6.9-7.2,10.5-1.2,1.8-2.6,2.8-4.6,3.4-4.2,1.2-8.4,2.3-12.5,3.7-4.3,1.4-5.3,4.8-2.8,8.5,1.3,1.9,2.7,3.9,4.3,5.6,4.3,4.6,6.9,9.7,5.1,15.8,0,2.4,0,4.4,0,6.4,0,5.6,3,8.3,8.1,5.9,9.7-4.6,19-4.8,28.8,0,5,2.5,8.9-.4,8-5.8-1.9-10.9,1.5-19.5,8.9-27.3,3.7-3.9,2.4-8.3-2.9-9.2Zm-10.3,9.8c-4.9,5.1-7.6,10.9-6.2,18.2.5,2.4-.8,2.9-2.8,1.9-.3-.2-.7-.2-1.1-.3-5.3-2.8-10.6-2.7-16.1-.1-3.9,1.8-4.6,1.4-3.9-2.8,1.1-6.8-1.8-11.7-6-16.4-.6-.7-2.5-2.2,0-2.6,8.3-1.3,14-5.8,17.8-14.6,4.1,9.1,10.1,14.1,19.6,14.5-.8,1.4-1,2-1.4,2.4Z"/>
  <path d="m357.5,118.1c-10.8-1.9-18.5-7.3-23.6-17.1-2.4-4.5-6.8-4.2-9.9.1-2.3,3.2-4.7,6.5-6.8,9.9-1.2,1.9-2.8,3-5,3.6-3.9,1-7.7,2.1-11.5,3.3-5.2,1.6-6.3,5-3.2,9.3,1.4,1.9,2.7,3.9,4.3,5.6,4.3,4.4,6.3,9.4,4.6,15.5,0,2.3,0,4.4,0,6.5,0,5.3,3.3,8,8,5.7,9.9-4.9,19.3-4.8,29.1,0,4.6,2.3,8.4-.5,7.7-5.5-1.7-10.9,1.3-19.8,9-27.7,3.8-3.9,2.4-8.3-2.9-9.2Zm-10.5,10c-4.9,5-7.3,10.8-6,17.9.4,2.3-.6,2.9-2.8,2-1.2-.6-2.7-.7-3.9-1.4-4.5-2.4-8.7-.7-12.9.9-4.5,1.7-5,1.6-4.3-3,1-6.5-1.6-11.3-5.7-15.7-1.8-1.9-1.7-3.2,1.1-3.5,6.8-.9,11.6-4.5,14.7-10.6.4-.8,1.4-3.6,2.7-1.1,3.9,7.4,9.9,11.5,18.5,12.3-.7,1.2-1,1.9-1.5,2.4Z"/>
</svg>