<?xml version="1.0" encoding="UTF-8"?>
<svg id="Capa_1" data-name="Capa 1" xmlns="http://www.w3.org/2000/svg" viewBox="0 0 500 500">
  <path d="m257,114.8c0,4.3,0,8.5,0,12.8-.1,4.5-3.1,7.7-7,7.7-3.9,0-6.9-3.2-7-7.7-.1-8.5,0-17.1,0-25.6,0-4.6,2.9-7.7,6.8-7.8,4.1,0,7.1,3,7.2,7.9,0,4.3,0,8.5,0,12.8Z"/>
  <path d="m257,385.2c0,4.3,0,8.5,0,12.8-.1,4.7-2.9,7.7-6.8,7.8-4.1.1-7.1-3-7.2-7.9,0-8.5,0-17.1,0-25.6,0-4.5,3.1-7.7,7-7.7,3.9,0,6.9,3.2,7,7.7.1,4.3,0,8.5,0,12.8Z"/>
  <path d="m175.7,385.9c-4.9,0-8.8-5-6.5-9.3,4.5-8.6,9.4-16.9,14.5-25.2,1.9-3.1,5.8-3.7,8.8-2,3.2,1.8,4.7,5.6,2.9,8.9-4.6,8.4-9.4,16.6-14.3,24.8-1.1,1.9-3.2,2.8-5.4,2.9Z"/>
  <path d="m331.4,379.1c-.3,3.1-1.8,5.3-4.7,6.4-2.9,1.1-5.9.5-7.5-2.1-5.4-8.4-10.4-16.9-14.8-25.9-1.6-3.2,0-6.1,2.8-7.9,2.9-1.9,6.4-1.9,8.3.8,6.1,8.5,11.1,17.8,15.8,27.1.2.4.1,1,.2,1.5Z"/>
  <path d="m324.4,114.1c4.9,0,8.7,5,6.4,9.4-4.5,8.6-9.4,16.9-14.4,25.2-1.9,3.1-5.8,3.6-8.8,1.9-3.2-1.8-4.7-5.6-2.9-8.9,4.5-8.3,9.3-16.4,14.1-24.5,1.2-2.1,3.2-3.1,5.7-3.1Z"/>
  <path d="m176.1,114.2c2.1,0,4.2,1.4,5.6,3.7,4.5,7.7,9,15.4,13.3,23.2,2.1,3.8.8,7.7-2.6,9.6-3.3,1.9-7.2.9-9.3-2.7-4.7-7.8-9.2-15.6-13.6-23.5-2.6-4.8.7-10.3,6.6-10.3Z"/>
  <path d="m450.2,243.6c-36.3-35.6-77.6-63.5-125.7-80.9-45.7-16.6-91.8-18.3-138.3-3.6-52.7,16.7-97.3,46.3-136.6,84.7-4.7,4.6-4.6,7.9,0,12.6,10.1,10.3,21,19.7,32.4,28.5,33,25.7,68.8,46,109.2,57.6,20.6,5.9,41.6,8.8,62.6,8.8,6.9-.6,13.5-.9,19.9-1.7,6.6-.8,13.2-1.8,19.7-3.3,61.6-14.1,112.6-46.8,157.3-90.3,4.3-4.2,4.1-7.7-.5-12.3Zm-286.5,74.2c-36.5-16-68.8-38.3-98-65.2-2-1.8-2.3-2.9-.1-4.9,33-30.3,69.5-54.9,111.7-70.8,1-.4,1.9-.9,3.5-.5-20.5,20.4-31.6,44.7-31.6,73.6,0,28.9,11,53.3,32.2,74.4-6.9-1.8-12.3-4.2-17.7-6.6Zm86.6,19.2c-43.9,0-87.4-34.9-87.3-87.4.1-51.4,43.1-87.3,86.9-86.3,43.9-1.2,87.2,35,87.1,87-.1,51.8-43.2,86.7-86.7,86.8Zm184.1-84.4c-32.5,29.8-68.5,54.1-109.8,70-1.6.6-3.1,1.5-5.6,1.4,20.9-20.7,31.9-45,31.9-74,0-28.9-11.1-53.2-31.2-73.7,6.4,1.4,12.2,4,18,6.6,35.9,15.9,67.7,38,96.6,64.5,2.1,1.9,2.6,3,.2,5.2Z"/>
  <path d="m296,233.9c-3.3,3.6-6.5,7.3-9.9,10.8-6.7,6.8-13.5,13.6-20.3,20.4-4.5,4.5-7.8,4.5-12.3,0-4.2-4.1-8.4-8.2-12.4-12.5-1.8-1.9-3-1.8-4.8,0-11.2,11.4-22.6,22.7-33.9,33.9-1,1-2.1,2.1-3.3,2.9-3.1,2-6.2,1.5-8.7-1.2-2.5-2.7-2.6-5.7-.5-8.8.6-.9,1.4-1.6,2.2-2.3,13.4-13.4,26.7-26.8,40.1-40.1,4.8-4.8,8.1-4.8,12.9,0,4.2,4.1,8.3,8.2,12.4,12.4,1.3,1.4,2.3,1.8,3.9.2,8.1-8.3,16.3-16.4,24.5-24.7.2-.2.3-.6.8-1.6-2,0-3.7,0-5.4,0-4.4-.3-7.2-3-7.3-6.9,0-3.9,2.8-6.9,7.1-7,7.9-.1,15.7-.1,23.6,0,3.8,0,6.5,2.8,6.6,6.6.1,8,.1,16,0,24,0,3.7-2.7,6.4-6.1,6.7-3.7.4-6.7-1.8-7.5-5.6-.4-2.1-.4-4.2-.5-6.3-.4-.3-.8-.6-1.3-.9Z"/>
</svg>