<?xml version="1.0" encoding="UTF-8"?>
<svg id="Capa_1" data-name="Capa 1" xmlns="http://www.w3.org/2000/svg" viewBox="0 0 200 200">
  <defs>
    <style>
      .cls-1 {
        fill: #fff;
      }
    </style>
  </defs>
  <path class="cls-1" d="m103.41,63.36c-19.26,0-34.94,15.67-34.94,34.94,0,6.36,1.77,12.62,5.11,18.11l.91,1.49-3.49,13.03,13.1-3.51,1.48.88c5.42,3.23,11.59,4.94,17.83,4.94,19.26,0,34.94-15.67,34.94-34.94s-15.67-34.94-34.94-34.94Zm20.52,48.13c-1.3,3.16-4.53,5.18-7.8,5.81-3.13.59-5.71-.4-8.61-1.36-2.58-.85-5.08-2.1-7.39-3.52-4.63-2.84-8.64-6.64-11.86-11.01-.98-1.34-1.89-2.73-2.73-4.16-1.11-1.9-2.1-3.89-2.62-6.03-.22-.89-.33-1.81-.34-2.73-.04-3.24,1.2-6.51,3.76-8.6,1.49-1.21,3.68-1.74,5.35-.8,1.81,1.02,2.75,3.61,3.59,5.42.66,1.42,1.4,3.28,1.13,4.87-.27,1.59-1.53,2.93-2.53,4.11-.68.8-.78,1.48-.22,2.34,3.32,5.53,7.93,9.55,13.95,11.95.82.33,1.45.23,1.99-.43,1.04-1.28,2.06-3.79,3.66-4.44,2.09-.85,4.4.33,6.17,1.39,1.65.99,4.41,2.2,4.86,4.24.22.99.02,2.03-.36,2.96Z"/>
  <path class="cls-1" d="m100,25c-41.42,0-75,33.58-75,75s33.58,75,75,75,75-33.58,75-75S141.42,25,100,25Zm3.41,116.38c-7.13,0-14.17-1.8-20.48-5.22l-23.45,6.28,6.25-23.33c-3.54-6.39-5.4-13.55-5.4-20.81,0-23.75,19.33-43.08,43.08-43.08s43.08,19.33,43.08,43.08-19.33,43.08-43.08,43.08Z"/>
</svg>